<?xml version="1.0" encoding="UTF-8"?>
<svg class="iconAbove" width="172" height="172" data-v-423bf9ae="" version="1.1" viewBox="0 0 172 172" xmlns="http://www.w3.org/2000/svg" xmlns:xlink="http://www.w3.org/1999/xlink">
 <!---->
 <circle cx="86.364" cy="86.364" r="83.449" fill="#eadefa" stroke="#fff" stroke-width="1.7575"/>
 <!---->
 <!---->
 <defs data-v-423bf9ae="">
  <linearGradient id="34192482-bcac-4fcf-a96f-7b02a63b2c44" data-v-423bf9ae="" gradientTransform="rotate(25)">
   <stop stop-color="#e90dca" data-v-423bf9ae="" offset="0"/>
   <stop stop-color="#1536f1" data-v-423bf9ae="" offset="1"/>
  </linearGradient>
  <linearGradient id="linearGradient3" x1="19.203" x2="63.493" gradientTransform="scale(.70636 1.4157)" gradientUnits="userSpaceOnUse" xlink:href="#34192482-bcac-4fcf-a96f-7b02a63b2c44"/>
  <linearGradient id="linearGradient4" x2="55.796" y1="42.61" y2="42.61" gradientTransform="scale(1.0469 .95523)" gradientUnits="userSpaceOnUse" xlink:href="#34192482-bcac-4fcf-a96f-7b02a63b2c44"/>
  <linearGradient id="linearGradient5" x2="74.099" gradientTransform="scale(.78829 1.2686)" gradientUnits="userSpaceOnUse" xlink:href="#34192482-bcac-4fcf-a96f-7b02a63b2c44"/>
 </defs>
 <g transform="matrix(1.3923 0 0 1.3923 47.05 21.318)" data-v-423bf9ae="">
  <path d="m29.206 62.703c8.638 0 15.643-7.002 15.643-15.642v-31.419c-1e-3 -8.637-7.006-15.642-15.643-15.642-8.64 0-15.642 7.005-15.642 15.642v31.419c-1e-3 8.64 7.001 15.642 15.642 15.642z" fill="url(#linearGradient3)"/>
  <path d="m52.14 40.702v6.38c0 12.648-10.287 22.935-22.935 22.935s-22.935-10.287-22.935-22.935v-6.38h-6.27v6.38c0 15.045 11.435 27.465 26.07 29.035v11.612h-17.249v6.271h40.77v-6.271h-17.25v-11.612c14.635-1.569 26.07-13.989 26.07-29.035v-6.38z" fill="url(#linearGradient4)"/>
 </g>
 <!---->
</svg>
